<svg width="134" height="30" viewBox="0 0 134 30" fill="none" xmlns="http://www.w3.org/2000/svg">
<path fill-rule="evenodd" clip-rule="evenodd" d="M13.9395 3.43948C14.2208 3.15828 14.6023 3.00031 15 3.00031C15.3977 3.00031 15.7792 3.15828 16.0605 3.43948L26.5605 13.9395C26.7702 14.1493 26.913 14.4165 26.9709 14.7074C27.0287 14.9984 26.999 15.2999 26.8855 15.574C26.772 15.848 26.5798 16.0823 26.3332 16.2471C26.0866 16.4119 25.7966 16.4999 25.5 16.5H24V25.5C24 25.8978 23.842 26.2793 23.5607 26.5606C23.2794 26.842 22.8978 27 22.5 27H19.5C19.1022 27 18.7206 26.842 18.4393 26.5606C18.158 26.2793 18 25.8978 18 25.5V21C18 20.6022 17.842 20.2206 17.5607 19.9393C17.2794 19.658 16.8978 19.5 16.5 19.5H13.5C13.1022 19.5 12.7206 19.658 12.4393 19.9393C12.158 20.2206 12 20.6022 12 21V25.5C12 25.8978 11.842 26.2793 11.5607 26.5606C11.2794 26.842 10.8978 27 10.5 27H7.5C7.10218 27 6.72064 26.842 6.43934 26.5606C6.15804 26.2793 6 25.8978 6 25.5V16.5H4.5C4.20337 16.4999 3.91343 16.4119 3.66681 16.2471C3.4202 16.0823 3.22799 15.848 3.11448 15.574C3.00098 15.2999 2.97127 14.9984 3.02912 14.7074C3.08698 14.4165 3.22979 14.1493 3.4395 13.9395L13.9395 3.43948Z" fill="#292929"/>
<path d="M122.25 5.5C121.09 5.5 119.977 5.96094 119.156 6.78141C118.336 7.60188 117.875 8.71468 117.875 9.875C117.875 11.0353 118.336 12.1481 119.156 12.9686C119.977 13.7891 121.09 14.25 122.25 14.25C123.41 14.25 124.523 13.7891 125.344 12.9686C126.164 12.1481 126.625 11.0353 126.625 9.875C126.625 8.71468 126.164 7.60188 125.344 6.78141C124.523 5.96094 123.41 5.5 122.25 5.5ZM115.375 9.875C115.375 8.05164 116.099 6.30295 117.389 5.01364C118.678 3.72433 120.427 3 122.25 3C124.073 3 125.822 3.72433 127.111 5.01364C128.401 6.30295 129.125 8.05164 129.125 9.875C129.125 11.6984 128.401 13.447 127.111 14.7364C125.822 16.0257 124.073 16.75 122.25 16.75C120.427 16.75 118.678 16.0257 117.389 14.7364C116.099 13.447 115.375 11.6984 115.375 9.875ZM111 24.25C111 22.5924 111.658 21.0027 112.831 19.8306C114.003 18.6585 115.592 18 117.25 18H127.25C128.908 18 130.497 18.6585 131.669 19.8306C132.842 21.0027 133.5 22.5924 133.5 24.25V28H111V24.25ZM117.25 20.5C116.255 20.5 115.302 20.8951 114.598 21.5984C113.895 22.3016 113.5 23.2554 113.5 24.25V25.5H131V24.25C131 23.2554 130.605 22.3016 129.902 21.5984C129.198 20.8951 128.245 20.5 127.25 20.5H117.25Z" fill="#292929"/>
</svg>
