<svg width="10" height="10" viewBox="0 0 10 10" fill="none" xmlns="http://www.w3.org/2000/svg">
<path d="M0.422819 0.359388C0.436914 0.119782 0.556717 -2.05008e-05 0.782228 -2.11892e-05L9.6406 0.0211206C9.88021 0.00702632 9.99296 0.119782 9.97887 0.359388L10 9.21776C10 9.44327 9.88021 9.56307 9.6406 9.57717L8.79493 9.57717C8.71036 9.57717 8.63285 9.54193 8.56237 9.47146C8.4919 9.40099 8.44962 9.31642 8.43552 9.21776L8.43552 2.66383L1.2262 9.87315C1.05707 10.0423 0.887936 10.0423 0.718803 9.87315L0.126835 9.28118C-0.0422983 9.11205 -0.0422981 8.94292 0.126835 8.77378L7.33615 1.56446L0.782228 1.56446C0.542622 1.55037 0.422819 1.43057 0.422819 1.20506L0.422819 0.359388Z" fill="black"/>
</svg>
