<svg width="42" height="40" viewBox="0 0 42 40" fill="none" xmlns="http://www.w3.org/2000/svg">
<path d="M29 21.5C29.8284 21.5 30.5 20.8284 30.5 20C30.5 19.1716 29.8284 18.5 29 18.5V21.5ZM6.93934 18.9393C6.35355 19.5251 6.35355 20.4749 6.93934 21.0607L16.4853 30.6066C17.0711 31.1924 18.0208 31.1924 18.6066 30.6066C19.1924 30.0208 19.1924 29.0711 18.6066 28.4853L10.1213 20L18.6066 11.5147C19.1924 10.9289 19.1924 9.97919 18.6066 9.3934C18.0208 8.80761 17.0711 8.80761 16.4853 9.3934L6.93934 18.9393ZM29 18.5L8 18.5V21.5L29 21.5V18.5Z" fill="white"/>
</svg>
