<svg width="17" height="18" viewBox="0 0 17 18" fill="none" xmlns="http://www.w3.org/2000/svg">
<path d="M12.8886 5.93269C12.8886 4.63048 12.3713 3.38162 11.4505 2.46082C10.5297 1.54002 9.28083 1.02273 7.97863 1.02273C6.67643 1.02273 5.42756 1.54002 4.50676 2.46082C3.58597 3.38162 3.06867 4.63048 3.06867 5.93269C3.06867 11.661 0.613689 13.2976 0.613689 13.2976H15.3436C15.3436 13.2976 12.8886 11.661 12.8886 5.93269Z" stroke="white" stroke-width="1.2" stroke-linecap="round" stroke-linejoin="round"/>
<path d="M9.39435 16.5709C9.25048 16.819 9.04398 17.0248 8.79552 17.1679C8.54706 17.311 8.26537 17.3864 7.97864 17.3864C7.69192 17.3864 7.41023 17.311 7.16177 17.1679C6.91331 17.0248 6.70681 16.819 6.56294 16.5709" stroke="white" stroke-width="1.2" stroke-linecap="round" stroke-linejoin="round"/>
<circle cx="12.8864" cy="4.09091" r="3.59091" fill="#FF0000" stroke="white"/>
</svg>
