<svg width="323" height="32" viewBox="0 0 323 32" fill="none" xmlns="http://www.w3.org/2000/svg">
<path d="M1.00124 19.6243L8.3423 14.0174L15.6834 19.6243V28.4352C15.6834 28.8601 15.5115 29.2676 15.2056 29.568C14.8996 29.8684 14.4847 30.0372 14.052 30.0372H2.63259C2.19993 30.0372 1.78499 29.8684 1.47905 29.568C1.17311 29.2676 1.00124 28.8601 1.00124 28.4352V19.6243Z" stroke="#4157FF" stroke-width="2" stroke-linecap="round" stroke-linejoin="round"/>
<path d="M5.89533 30.0372V22.0273H10.7894V30.0372" stroke="#4157FF" stroke-width="2" stroke-linecap="round" stroke-linejoin="round"/>
<path d="M233.876 14.0174L231.429 17.2213V28.4352C231.429 28.8601 231.601 29.2676 231.907 29.568C232.213 29.8684 232.628 30.0372 233.06 30.0372H244.48C244.912 30.0372 245.327 29.8684 245.633 29.568C245.939 29.2676 246.111 28.8601 246.111 28.4352V17.2213L243.664 14.0174H233.876Z" stroke="#090F47" stroke-opacity="0.45" stroke-width="1.2" stroke-linecap="round" stroke-linejoin="round"/>
<path d="M231.429 17.2213H246.111" stroke="#090F47" stroke-opacity="0.45" stroke-width="1.2" stroke-linecap="round" stroke-linejoin="round"/>
<path d="M242.033 20.4253C242.033 21.2751 241.689 22.09 241.077 22.6909C240.465 23.2917 239.635 23.6293 238.77 23.6293C237.905 23.6293 237.075 23.2917 236.463 22.6909C235.851 22.09 235.507 21.2751 235.507 20.4253" stroke="#090F47" stroke-opacity="0.45" stroke-width="1.2" stroke-linecap="round" stroke-linejoin="round"/>
<path d="M90.7275 19.8254C90.7275 18.5506 90.2118 17.3279 89.2938 16.4265C88.3758 15.525 87.1308 15.0186 85.8326 15.0186C84.5344 15.0186 83.2893 15.525 82.3714 16.4265C81.4534 17.3279 80.9377 18.5506 80.9377 19.8254C80.9377 25.4333 78.4902 27.0356 78.4902 27.0356H93.175C93.175 27.0356 90.7275 25.4333 90.7275 19.8254Z" stroke="#090F47" stroke-opacity="0.45" stroke-width="1.2" stroke-linecap="round" stroke-linejoin="round"/>
<path d="M87.2439 30.2401C87.1005 30.4829 86.8946 30.6844 86.6469 30.8245C86.3992 30.9646 86.1184 31.0384 85.8325 31.0384C85.5467 31.0384 85.2659 30.9646 85.0182 30.8245C84.7705 30.6844 84.5646 30.4829 84.4212 30.2401" stroke="#090F47" stroke-opacity="0.45" stroke-width="1.2" stroke-linecap="round" stroke-linejoin="round"/>
<path d="M94.303 16.0198C94.303 17.9467 92.7098 19.5242 90.7253 19.5242C88.7407 19.5242 87.1475 17.9467 87.1475 16.0198C87.1475 14.093 88.7407 12.5155 90.7253 12.5155C92.7098 12.5155 94.303 14.093 94.303 16.0198Z" fill="#FF0000" stroke="white"/>
<path d="M322.399 30.0372V28.2572C322.399 27.313 322.017 26.4075 321.337 25.7399C320.658 25.0723 319.736 24.6972 318.774 24.6972H311.524C310.562 24.6972 309.64 25.0723 308.96 25.7399C308.28 26.4075 307.898 27.313 307.898 28.2572V30.0372" stroke="#090F47" stroke-opacity="0.45" stroke-width="1.2" stroke-linecap="round" stroke-linejoin="round"/>
<path d="M315.149 21.1373C317.151 21.1373 318.774 19.5434 318.774 17.5773C318.774 15.6112 317.151 14.0174 315.149 14.0174C313.147 14.0174 311.524 15.6112 311.524 17.5773C311.524 19.5434 313.147 21.1373 315.149 21.1373Z" stroke="#090F47" stroke-opacity="0.45" stroke-width="1.2" stroke-linecap="round" stroke-linejoin="round"/>
<rect x="147.822" width="24.0298" height="24.0298" rx="6" fill="#4157FF"/>
<path d="M164.043 6.60816H155.632C154.969 6.60816 154.431 7.14608 154.431 7.80965V16.2201C154.431 16.8836 154.969 17.4216 155.632 17.4216H164.043C164.706 17.4216 165.244 16.8836 165.244 16.2201V7.80965C165.244 7.14608 164.706 6.60816 164.043 6.60816Z" stroke="white" stroke-width="1.5" stroke-linecap="round" stroke-linejoin="round"/>
<path d="M159.837 9.61188V14.4178" stroke="white" stroke-width="1.5" stroke-linecap="round" stroke-linejoin="round"/>
<path d="M157.434 12.0149H162.24" stroke="white" stroke-width="1.5" stroke-linecap="round" stroke-linejoin="round"/>
</svg>
